<?xml version="1.0" encoding="UTF-8"?>
<!DOCTYPE svg PUBLIC "-//W3C//DTD SVG 1.1//EN" "http://www.w3.org/Graphics/SVG/1.1/DTD/svg11.dtd">
<svg xmlns="http://www.w3.org/2000/svg" version="1.1" width="215px" height="53px" style="shape-rendering:geometricPrecision; text-rendering:geometricPrecision; image-rendering:optimizeQuality; fill-rule:evenodd; clip-rule:evenodd" xmlns:xlink="http://www.w3.org/1999/xlink">
<g><path style="opacity:0.942" fill="#02071e" d="M 19.5,-0.5 C 24.8333,-0.5 30.1667,-0.5 35.5,-0.5C 47.6806,3.89751 53.3473,12.7308 52.5,26C 53.2422,39.7089 47.2422,48.5422 34.5,52.5C 29.8333,52.5 25.1667,52.5 20.5,52.5C 8.21309,48.1268 2.54642,39.2934 3.5,26C 2.52666,13.1807 7.86,4.34734 19.5,-0.5 Z M 23.5,9.5 C 34.9769,8.80375 40.9769,14.3037 41.5,26C 40.2448,40.6245 32.9114,45.2912 19.5,40C 13.4589,31.532 12.9589,22.6987 18,13.5C 19.8121,12.0229 21.6455,10.6896 23.5,9.5 Z"/></g>
<g><path style="opacity:0.94" fill="#03071e" d="M 106.5,0.5 C 109.187,0.33591 111.854,0.502577 114.5,1C 115.701,1.90252 116.535,3.06919 117,4.5C 117.333,12.1667 117.667,19.8333 118,27.5C 121.899,11.1345 131.732,6.30115 147.5,13C 153.589,18.8266 155.922,25.9932 154.5,34.5C 146.16,34.3336 137.827,34.5003 129.5,35C 132.001,42.2628 136.334,43.7628 142.5,39.5C 146.5,38.1667 150.5,38.1667 154.5,39.5C 153.064,45.437 149.397,49.2703 143.5,51C 129.067,54.3795 120.567,48.8795 118,34.5C 116.518,46.4733 109.685,52.14 97.5,51.5C 88.1335,51.9713 82.3002,47.638 80,38.5C 78.7367,30.82 79.7367,23.4867 83,16.5C 90.1151,9.35504 97.7818,8.68837 106,14.5C 106.499,9.8452 106.666,5.17853 106.5,0.5 Z M 95.5,20.5 C 102.521,20.3518 106.187,23.8518 106.5,31C 106.633,36.9318 103.967,40.7652 98.5,42.5C 96.3033,42.1519 94.47,41.1519 93,39.5C 89.1853,32.4598 90.0186,26.1264 95.5,20.5 Z M 133.5,20.5 C 138.709,19.3961 141.709,21.3961 142.5,26.5C 138.5,26.5 134.5,26.5 130.5,26.5C 130.615,24.0532 131.615,22.0532 133.5,20.5 Z"/></g>
<g><path style="opacity:0.941" fill="#03081e" d="M 179.5,11.5 C 179.5,15.1667 179.5,18.8333 179.5,22.5C 176.432,22.5467 173.432,23.0467 170.5,24C 169.299,24.9025 168.465,26.0692 168,27.5C 167.5,35.4931 167.334,43.4931 167.5,51.5C 163.833,51.5 160.167,51.5 156.5,51.5C 156.334,42.1607 156.5,32.8274 157,23.5C 161.353,13.9032 168.853,9.9032 179.5,11.5 Z"/></g>
<g><path style="opacity:0.974" fill="#f38507" d="M 179.5,11.5 C 189.833,11.5 200.167,11.5 210.5,11.5C 210.5,24.8333 210.5,38.1667 210.5,51.5C 200.167,51.5 189.833,51.5 179.5,51.5C 179.5,41.8333 179.5,32.1667 179.5,22.5C 179.5,18.8333 179.5,15.1667 179.5,11.5 Z"/></g>
<g><path style="opacity:0.925" fill="#02071e" d="M 70.5,11.5 C 73.1667,11.5 75.8333,11.5 78.5,11.5C 78.5,15.5 78.5,19.5 78.5,23.5C 74.4836,22.8999 70.9836,23.8999 68,26.5C 66.5943,34.7492 66.0943,43.0826 66.5,51.5C 62.8333,51.5 59.1667,51.5 55.5,51.5C 55.1091,41.767 55.6091,32.1003 57,22.5C 59.6157,16.3723 64.1157,12.7057 70.5,11.5 Z"/></g>
<g><path style="opacity:1" fill="#13101e" d="M 203.5,27.5 C 198.167,27.5 192.833,27.5 187.5,27.5C 187.5,26.1667 187.5,24.8333 187.5,23.5C 195.295,23.8129 195.462,22.8129 188,20.5C 187.51,19.2068 187.343,17.8734 187.5,16.5C 190.354,16.9239 193.021,17.9239 195.5,19.5C 197.793,17.7701 200.293,16.4367 203,15.5C 203.798,17.2588 203.631,18.9255 202.5,20.5C 195.738,22.9069 196.071,23.9069 203.5,23.5C 203.5,24.8333 203.5,26.1667 203.5,27.5 Z"/></g>
<g><path style="opacity:1" fill="#683c15" d="M 187.5,23.5 C 187.5,24.8333 187.5,26.1667 187.5,27.5C 192.833,27.5 198.167,27.5 203.5,27.5C 198.025,28.4889 192.358,28.8222 186.5,28.5C 186.216,26.5853 186.549,24.9187 187.5,23.5 Z"/></g>
<g><path style="opacity:1" fill="#090b1e" d="M 187.5,30.5 C 192.179,30.3342 196.845,30.5008 201.5,31C 204.167,34.6667 204.167,38.3333 201.5,42C 196.845,42.4992 192.179,42.6658 187.5,42.5C 187.5,41.1667 187.5,39.8333 187.5,38.5C 191.514,38.6655 195.514,38.4988 199.5,38C 200.8,36.4212 200.466,35.2545 198.5,34.5C 195.038,33.5184 191.371,33.185 187.5,33.5C 187.5,32.5 187.5,31.5 187.5,30.5 Z"/></g>
<g><path style="opacity:1" fill="#412819" d="M 187.5,30.5 C 187.5,31.5 187.5,32.5 187.5,33.5C 191.371,33.185 195.038,33.5184 198.5,34.5C 194.5,34.5 190.5,34.5 186.5,34.5C 186.232,32.901 186.566,31.5676 187.5,30.5 Z"/></g>
<g><path style="opacity:1" fill="#1c151d" d="M 199.5,44.5 C 200.833,44.5 202.167,44.5 203.5,44.5C 203.5,45.8333 203.5,47.1667 203.5,48.5C 200.5,48.8333 199.167,47.5 199.5,44.5 Z"/></g>
</svg>
